:SAMPLES-PER-SECOND 30
:FULLY-SPECIFIED
:DEGREES
166
root  34.77782002 36.43516781 -14.73024173 12.84793568 18.33463478 6.018807888
lowerback  -8.421230316 4.320569992 4.496520042
upperback  -4.5896101 5.091430187 -5.496490002
thorax  0.8297460079 2.278321266 -7.812190056
lowerneck  -16.07299995 -2.892879963 0.7222750187
upperneck  12.0710001 -5.391280174 6.98927021
head  6.505768299 -2.091032028 1.563658237
lclavicle  0 -4.497500157e-015 -2.743230041e-014
lhumerus  -42.52510071 27.46450233 66.8451004
lradius  -0.4645520747 -6.507048965e-006 25.59560013
lwrist  4.824992743e-007 -3.790274832e-007 -34.65639877
lhand  -4.451004858e-031 -37.5019989 -10.65569973
lfingers  90 7.125020027 -90
lthumb  95.09400318 -25.46987498 101.7109677
rclavicle  0 -4.497500157e-015 -2.743230041e-014
rhumerus  75.1765976 -4.99808073 -58.35960007
rradius  -5.16745672e-007 2.214343908e-008 36.12900162
rwrist  1.129822067e-006 0.001802438172 -152.779007
rhand  -1.771714845e-031 4.776239872 -7.325079918
rfingers  -90 -7.125020027 -90
rthumb  -84.87825141 -8.735379315 -59.45204912
rfemur  -14.96100616 8.087521553 15.29314995
rtibia  -4.519908905 2.60232234 25.99631691
rfoot  -3.919566631 -11.92465496 -47.35496521
rtoes  3.924586327 19.62664035 -101.5436912
lfemur  -13.30933857 -24.94893265 -18.53722954
ltibia  3.70746398 3.304914713 14.27033234
lfoot  0.6095606685 -31.28905487 25.75053406
ltoes  -8.665033518 -18.09513741 -116.1353509
167
root  34.7768288 36.43574452 -14.72915289 12.88979626 18.38678741 6.038694859
lowerback  -8.387850761 4.325520039 4.513950348
upperback  -4.594190121 5.098169804 -5.502820015
thorax  0.8096979856 2.278886557 -7.830510139
lowerneck  -16.08909988 -2.895590067 0.6929960251
upperneck  12.13010025 -5.401120186 7.027430058
head  6.529735565 -2.091411591 1.579319835
lclavicle  0 -4.497500157e-015 -2.743230041e-014
lhumerus  -42.58940125 27.50390053 66.77809906
lradius  -0.4635527134 -6.507048965e-006 25.59760094
lwrist  4.824992743e-007 -3.790274832e-007 -34.68030167
lhand  -4.453057379e-031 -37.53639984 -10.69250011
lfingers  90 7.125020027 -90
lthumb  95.1184135 -25.50472178 101.751232
rclavicle  0 -4.497500157e-015 -2.743230041e-014
rhumerus  75.22940063 -5.148990631 -58.53720093
rradius  -5.16745672e-007 2.214343908e-008 35.89619827
rwrist  1.129822067e-006 0.001802438172 -152.7640076
rhand  -1.771931598e-031 4.859399796 -7.138730049
rfingers  -90 -7.125020027 -90
rthumb  -84.76250617 -8.901142512 -59.35616307
rfemur  -14.99580383 8.057617188 15.29227448
rtibia  -4.537865162 2.592412472 26.01384163
rfoot  -3.930516481 -11.90683174 -47.37203217
rtoes  3.908041254 19.62981629 -101.4944375
lfemur  -13.44146442 -25.01307678 -18.50527573
ltibia  3.667950869 3.274925709 14.38139153
lfoot  0.581410408 -31.24957275 25.66509628
ltoes  -8.645613731 -18.10418195 -116.0728417
168
root  34.77597875 36.43514979 -14.72831786 12.9074173 18.42525101 6.056591511
lowerback  -8.396990776 4.334839821 4.499850273
upperback  -4.604360104 5.110439777 -5.497169971
thorax  0.8045430183 2.278373957 -7.814630032
lowerneck  -16.06570053 -2.904170036 0.6805769801
upperneck  12.13780022 -5.412970066 7.042640209
head  6.529438972 -2.090532541 1.585206389
lclavicle  0 -4.497500157e-015 -2.743230041e-014
lhumerus  -42.6631012 27.53830147 66.72239685
lradius  -0.4625091851 -6.507048965e-006 25.59260178
lwrist  4.824992743e-007 -3.790274832e-007 -34.71730042
lhand  -0 -37.52949905 -10.65600014
lfingers  90 7.125020027 -90
lthumb  95.10691068 -25.46919198 101.7402579
rclavicle  0 -4.497500157e-015 -2.743230041e-014
rhumerus  75.2315979 -5.296040058 -58.75149918
rradius  -5.16745672e-007 2.214343908e-008 35.7635994
rwrist  1.129822067e-006 0.001802438172 -152.7709961
rhand  -1.771857306e-031 4.831059933 -7.278490067
rfingers  -90 -7.125020027 -90
rthumb  -84.84130286 -8.779077436 -59.39494184
rfemur  -15.02053833 8.046206474 15.29271984
rtibia  -4.555348396 2.587558508 26.04878426
rfoot  -3.947651863 -11.89888573 -47.38446426
rtoes  3.924337287 19.62668826 -101.5429498
lfemur  -13.46132088 -25.09842491 -18.50753021
ltibia  3.659530401 3.252542257 14.39901447
lfoot  0.5743832588 -31.20863533 25.65952492
ltoes  -8.657085786 -18.09884205 -116.1097648
169
root  34.77499654 36.43480736 -14.72731613 12.95573902 18.46139145 6.09786129
lowerback  -8.384750366 4.338620186 4.529750347
upperback  -4.600279808 5.115429878 -5.488480091
thorax  0.8050714731 2.277063131 -7.822509766
lowerneck  -16.07749939 -2.911750078 0.6822140217
upperneck  12.17150021 -5.426070213 7.037970066
head  6.542509079 -2.088772297 1.581835151
lclavicle  0 -4.497500157e-015 -2.743230041e-014
lhumerus  -42.75279999 27.70339775 66.59079742
lradius  -0.4614559114 -6.507048965e-006 25.5712986
lwrist  4.824992743e-007 -3.790274832e-007 -34.89619827
lhand  -4.451684775e-031 -37.51340103 -10.60050011
lfingers  90 7.125020027 -90
lthumb  95.08689162 -25.41544345 101.7177162
rclavicle  0 -4.497500157e-015 -2.743230041e-014
rhumerus  75.21060181 -5.396519661 -58.78350067
rradius  -5.16745672e-007 2.214343908e-008 35.69369888
rwrist  1.129822067e-006 0.001802438172 -152.776001
rhand  -1.772043597e-031 4.901810169 -7.392749786
rfingers  -90 -7.125020027 -90
rthumb  -84.88350957 -8.68535656 -59.33489889
rfemur  -15.08412933 8.056464195 15.27137947
rtibia  -4.585669518 2.578562498 26.12343216
rfoot  -3.987752914 -11.88761711 -47.40240097
rtoes  3.90334409 19.63071538 -101.4804558
lfemur  -13.45875645 -25.16261482 -18.5378437
ltibia  3.682381868 3.252249479 14.32374096
lfoot  0.5626593232 -31.15886116 25.64659309
ltoes  -8.658701613 -18.09808922 -116.1149662
170
root  34.7743988 36.43228125 -14.72651564 12.95937347 18.48928642 6.11368084
lowerback  -8.406602859 4.341842651 4.524272919
upperback  -4.608439922 5.11800766 -5.481110096
thorax  0.8071799874 2.275232792 -7.810150146
lowerneck  -16.07789993 -2.909650087 0.6942909956
upperneck  12.20419979 -5.423540115 7.010640144
head  6.552171707 -2.086507797 1.571467519
lclavicle  0 -4.497500157e-015 -2.743230041e-014
lhumerus  -42.82450104 27.69269753 66.56749725
lradius  -0.460392803 -6.507048965e-006 25.56779861
lwrist  4.824992743e-007 -3.790274832e-007 -34.87360001
lhand  -0 -37.52289963 -10.50030041
lfingers  90 7.125020027 -90
lthumb  95.06882756 -25.31700795 101.718258
rclavicle  0 -4.497500157e-015 -2.743230041e-014
rhumerus  75.19490051 -5.425388336 -58.65240097
rradius  -5.16745672e-007 2.214343908e-008 35.65480042
rwrist  1.129822067e-006 0.001802438172 -152.7109985
rhand  -1.771741823e-031 4.786670208 -7.548250198
rfingers  -90 -7.125020027 -90
rthumb  -84.99049581 -8.543903164 -59.45906228
rfemur  -15.08249855 8.010097504 15.26868248
rtibia  -4.592877865 2.567788601 26.13791466
rfoot  -3.991677284 -11.90124607 -47.37382126
rtoes  3.890389832 19.63318914 -101.4418988
lfemur  -13.41587734 -25.10974312 -18.55615616
ltibia  3.702907324 3.28132987 14.25300789
lfoot  0.5671194196 -31.1936779 25.62227058
ltoes  -8.696707471 -18.080331 -116.2373693
171
root  34.77370495 36.43096563 -14.72560702 12.95117474 18.51840401 6.103755474
lowerback  -8.430259705 4.34262991 4.516470432
upperback  -4.620140076 5.117360115 -5.491139889
thorax  0.8083450198 2.273162127 -7.815420151
lowerneck  -16.08042336 -2.90892005 0.7097780108
upperneck  12.26830006 -5.426650047 6.982379913
head  6.567904949 -2.084115982 1.553136587
lclavicle  0 -4.497500157e-015 -2.743230041e-014
lhumerus  -42.8832016 27.60280037 66.5809021
lradius  -0.4593198895 -6.507048965e-006 25.57159805
lwrist  4.824992743e-007 -3.790274832e-007 -34.69900131
lhand  -4.453798173e-031 -37.54880142 -10.57530022
lfingers  90 7.125020027 -90
lthumb  95.09780034 -25.38949752 101.7531678
rclavicle  0 -4.497500157e-015 -2.743230041e-014
rhumerus  75.17549896 -5.519179821 -58.84189987
rradius  -5.16745672e-007 2.214343908e-008 35.56829834
rwrist  1.129822067e-006 0.001802438172 -152.7429962
rhand  -1.771734989e-031 4.784029961 -7.616950035
rfingers  -90 -7.125020027 -90
rthumb  -85.02642003 -8.484519912 -59.46684463
rfemur  -15.06117725 7.967873573 15.28562832
rtibia  -4.595860958 2.558789968 26.11839294
rfoot  -3.99481225 -11.94394207 -47.37931824
rtoes  3.875084048 19.63610089 -101.3963487
lfemur  -13.4182682 -25.13051224 -18.54255295
ltibia  3.691867113 3.290054798 14.28310966
lfoot  0.5881282687 -31.23524475 25.65666962
ltoes  -8.720869976 -18.06899025 -116.3152485
172
root  34.7728489 36.43071032 -14.72454822 12.9775219 18.54387665 6.129096985
lowerback  -8.442399979 4.336669922 4.51706934
upperback  -4.617569923 5.109449863 -5.481470108
thorax  0.8145918846 2.2711308 -7.805449963
lowerneck  -16.08448219 -2.899879932 0.7500360012
upperneck  12.30879974 -5.420889854 6.945469856
head  6.584589958 -2.080840111 1.541059971
lclavicle  0 -4.497500157e-015 -2.743230041e-014
lhumerus  -42.97280121 27.6718998 66.49569702
lradius  -0.4582371116 -6.507048965e-006 25.55040359
lwrist  4.824992743e-007 -3.790274832e-007 -34.79100037
lhand  -4.451798094e-031 -37.51530075 -10.63510036
lfingers  90 7.125020027 -90
lthumb  95.09554972 -25.44926058 101.723054
rclavicle  0 -4.497500157e-015 -2.743230041e-014
rhumerus  75.16439819 -5.589240074 -58.87739944
rradius  -5.16745672e-007 2.214343908e-008 35.51259995
rwrist  1.129822067e-006 0.001802438172 -152.6719971
rhand  -1.771622033e-031 4.740180016 -7.438690186
rfingers  -90 -7.125020027 -90
rthumb  -84.94509243 -8.635148667 -59.49601314
rfemur  -15.09477234 7.98368454 15.27284145
rtibia  -4.597551823 2.556181908 26.16201401
rfoot  -4.022556305 -11.93130398 -47.41107941
rtoes  3.852903831 19.64029916 -101.3303518
lfemur  -13.43767166 -25.09921646 -18.54685974
ltibia  3.702766895 3.303331614 14.24317455
lfoot  0.5717269182 -31.22944832 25.59222031
ltoes  -8.697385166 -18.08001346 -116.239553
173
root  34.77219109 36.43031984 -14.72357352 12.98530483 18.56267929 6.118553638
lowerback  -8.452859879 4.324520588 4.496610165
upperback  -4.614530087 5.09431982 -5.474199772
thorax  0.8196229935 2.269417524 -7.786880016
lowerneck  -16.08794403 -2.891259909 0.7166579962
upperneck  12.32730007 -5.406680107 6.967470169
head  6.590469837 -2.073309898 1.555040002
lclavicle  0 -4.497500157e-015 -2.743230041e-014
lhumerus  -43.03979874 27.75530243 66.42610168
lradius  -0.4571443796 -6.507048965e-006 25.4993
lwrist  4.824992743e-007 -3.790274832e-007 -34.85160065
lhand  -0 -37.48469925 -10.64169979
lfingers  90 7.125020027 -90
lthumb  95.08271006 -25.45687154 101.6910042
rclavicle  0 -4.497500157e-015 -2.743230041e-014
rhumerus  75.13089752 -5.625298977 -58.77909851
rradius  -5.16745672e-007 2.214343908e-008 35.51670074
rwrist  1.129822067e-006 0.001802438172 -152.5899963
rhand  -1.771442025e-031 4.669439793 -7.400259972
rfingers  -90 -7.125020027 -90
rthumb  -84.94188203 -8.663678945 -59.56200401
rfemur  -15.09392262 7.98962307 15.28178978
rtibia  -4.598061562 2.555439949 26.14320564
rfoot  -4.020563602 -11.92569828 -47.44654465
rtoes  3.882238788 19.63474127 -101.4176404
lfemur  -13.48021317 -25.0825119 -18.51732063
ltibia  3.684654474 3.317301512 14.29287148
lfoot  0.5755947232 -31.28200531 25.56591606
ltoes  -8.699772685 -18.07889452 -116.2472463
